<svg width="31" height="28" viewBox="0 0 31 28" fill="none" xmlns="http://www.w3.org/2000/svg">
<path d="M13.6715 26.348L13.5201 26.2088L2.9123 16.3578C1.05352 14.6322 0 12.2103 0 9.67343V9.47363C0 5.21113 3.02734 1.5541 7.21719 0.754877C9.60273 0.294721 12.0428 0.845697 13.9863 2.21406C14.5312 2.60156 15.0398 3.0496 15.5 3.56425C15.7543 3.27363 16.0268 3.00722 16.3174 2.75898C16.5414 2.56523 16.7715 2.38359 17.0137 2.21406C18.9572 0.845697 21.3973 0.294721 23.7828 0.748823C27.9727 1.54804 31 5.21113 31 9.47363V9.67343C31 12.2103 29.9465 14.6322 28.0877 16.3578L17.4799 26.2088L17.3285 26.348C16.832 26.8082 16.1781 27.0686 15.5 27.0686C14.8219 27.0686 14.168 26.8143 13.6715 26.348ZM14.4768 6.77929C14.4525 6.76113 14.4344 6.73691 14.4162 6.71269L13.3385 5.50175L13.3324 5.4957C11.9338 3.92753 9.8207 3.21308 7.76211 3.60663C4.94062 4.1455 2.90625 6.6037 2.90625 9.47363V9.67343C2.90625 11.399 3.62676 13.0519 4.89219 14.2266L15.5 24.0775L26.1078 14.2266C27.3732 13.0519 28.0938 11.399 28.0938 9.67343V9.47363C28.0938 6.60976 26.0594 4.1455 23.2439 3.60663C21.1854 3.21308 19.0662 3.93359 17.6736 5.4957C17.6736 5.4957 17.6736 5.4957 17.6676 5.50175C17.6615 5.50781 17.6676 5.50175 17.6615 5.50781L16.5838 6.71874C16.5656 6.74296 16.5414 6.76113 16.5232 6.78535C16.2508 7.05781 15.8814 7.20917 15.5 7.20917C15.1186 7.20917 14.7492 7.05781 14.4768 6.78535V6.77929Z" fill="black"/>
</svg>
